# xmcd
#
# Track frame offsets: 
#        150
#        12371
#        31126
#        49025
#        68516
#        81957
#        98789
#        120597
#        130583
#
# Disc length: 2113 seconds
#
# Revision: 0
# Processed by: cddbd v1.5.2PL0 Copyright (c) Steve Scherf et al.
# Submitted via: ExactAudioCopy v0.95a5
#
DISCID=65083f09
DTITLE=Blues Junkers - Blues Not Dead
DYEAR=2014
DGENRE=Blues
TTITLE0=Blues Junkers
TTITLE1=Glory Of Love
TTITLE2=Mary Jane
TTITLE3=Ain't Nobody's Business If I Do
TTITLE4=Let's Get High
TTITLE5=Miss You So
TTITLE6=Blues Not Dead
TTITLE7=Stop That Boozin' Now
TTITLE8=I'd Rather Go Blind
EXTD=
EXTT0=
EXTT1=
EXTT2=
EXTT3=
EXTT4=
EXTT5=
EXTT6=
EXTT7=
EXTT8=
PLAYORDER=
